# xmcd
#
# Track frame offsets: 
#        150
#        23355
#        58492
#        93110
#        132522
#        168355
#        200509
#        219327
#        237227
#        266955
#        299937
#
# Disc length: 4215 seconds
#
# Revision: 9
# Processed by: cddbd v1.5.1PL0 Copyright (c) Steve Scherf et al.
# Submitted via: ExactAudioCopy v0.95a5
#
DISCID=aa10750b
DTITLE=Ayreon - The Dream Sequencer
DYEAR=2000
DGENRE=Progressive Rock
TTITLE0=The dream sequencer
TTITLE1=My house on Mars
TTITLE2=2084
TTITLE3=One small step
TTITLE4=The shooting company of captain Frans B. Cocq
TTITLE5=Dragon on the sea
TTITLE6=Temple of the cat
TTITLE7=Carried by the wind
TTITLE8=And the druids turn to stone
TTITLE9=The first man on Earth
TTITLE10=The dream sequencer reprise
EXTD=
EXTT0=
EXTT1=
EXTT2=
EXTT3=
EXTT4=
EXTT5=
EXTT6=
EXTT7=
EXTT8=
EXTT9=
EXTT10=
PLAYORDER=
